<svg width="24" height="25" viewBox="0 0 24 25" fill="none" xmlns="http://www.w3.org/2000/svg">
<g opacity="0.6">
<path d="M8.2646 10.6786C7.65595 10.6786 7.16421 11.2212 7.16421 11.8929C7.16421 12.5645 7.65595 13.1071 8.2646 13.1071C8.87326 13.1071 9.365 12.5645 9.365 11.8929C9.365 11.2212 8.87326 10.6786 8.2646 10.6786ZM12.116 10.6786C11.5073 10.6786 11.0156 11.2212 11.0156 11.8929C11.0156 12.5645 11.5073 13.1071 12.116 13.1071C12.7246 13.1071 13.2164 12.5645 13.2164 11.8929C13.2164 11.2212 12.7246 10.6786 12.116 10.6786ZM15.9674 10.6786C15.3587 10.6786 14.867 11.2212 14.867 11.8929C14.867 12.5645 15.3587 13.1071 15.9674 13.1071C16.576 13.1071 17.0678 12.5645 17.0678 11.8929C17.0678 11.2212 16.576 10.6786 15.9674 10.6786ZM12.116 4C7.25362 4 3.31283 7.53281 3.31283 11.8929C3.31283 13.6991 3.99714 15.3536 5.13192 16.6855C4.61955 18.1806 3.55354 19.448 3.53635 19.4632C3.30939 19.7288 3.24749 20.1158 3.37816 20.4498C3.50884 20.7837 3.80801 21 4.13812 21C6.25294 21 7.92073 20.0248 8.9214 19.2431C9.91519 19.5884 10.9881 19.7857 12.116 19.7857C16.9783 19.7857 20.9191 16.2529 20.9191 11.8929C20.9191 7.53281 16.9783 4 12.116 4ZM12.116 17.9643C11.1978 17.9643 10.29 17.8087 9.42002 17.5051L8.63942 17.2319L7.96887 17.7556C7.47713 18.1388 6.80314 18.5676 5.9916 18.856C6.24263 18.3969 6.48678 17.8808 6.67591 17.3306L7.04041 16.2643L6.33204 15.4371C5.70963 14.7047 4.96342 13.4942 4.96342 11.8929C4.96342 8.54598 8.17176 5.82143 12.116 5.82143C16.0602 5.82143 19.2685 8.54598 19.2685 11.8929C19.2685 15.2397 16.0602 17.9643 12.116 17.9643Z" fill="#363636"/>
</g>
</svg>
