<svg xmlns="http://www.w3.org/2000/svg" xmlns:xlink="http://www.w3.org/1999/xlink" version="1.1" width="30" height="30" viewBox="0 0 30 30">
<path transform="matrix(1,0,0,-1,8.437256,21.592652)" d="M12.850652 12.880466C12.727612 13.003588 12.572723 13.090024 12.403337 13.130094 12.23395 13.170164 12.056752 13.162286 11.891589 13.107342L3.454089 10.294842C3.315901 10.248769 3.190336 10.171159 3.087335 10.068157 2.984334 9.965157 2.906724 9.839591 2.860651 9.701404L.048151 1.263904C-.006936 1.09872-.01493 .921458 .025064 .751987 .065059 .582514 .151461 .427529 .274587 .304402 .397714 .181275 .552699 .094872 .722171 .054878 .891643 .014884 1.068905 .02288 1.234089 .077967L9.671589 2.890467C9.809776 2.93654 9.935342 3.014148 10.038343 3.117149 10.141345 3.22015 10.218952 3.345716 10.265026 3.483904L13.077526 11.921404C13.13247 12.086567 13.140348 12.263765 13.100278 12.433152 13.060208 12.602539 12.973773 12.757426 12.850652 12.880466ZM2.420027 2.448904 4.491902 8.662654 8.634713 4.51984 2.420027 2.448904Z" fill="#363636"/>
<path transform="matrix(1,0,0,-1,1.875,28.379242)" d="M13.125007 .254236C10.529126 .254236 7.991541 1.024004 5.833146 2.466198 3.674751 3.90839 1.992487 5.958235 .999087 8.356516 .005687 10.754796-.254232 13.393795 .252199 15.939795 .75863 18.485796 2.008665 20.824448 3.844229 22.660014 5.679793 24.495577 8.018446 25.745612 10.564446 26.252043 13.110447 26.758475 15.749446 26.498555 18.147727 25.505156 20.546008 24.511755 22.595852 22.82949 24.038044 20.671097 25.480238 18.512701 26.250006 15.975116 26.250006 13.379235 26.246035 9.899488 24.861952 6.5634 22.401396 4.102846 19.940842 1.64229 16.604754 .258207 13.125007 .254236ZM13.125007 24.629237C10.899966 24.629237 8.724894 23.969435 6.874841 22.733269 5.024788 21.497103 3.582847 19.740094 2.731361 17.684426 1.879875 15.628756 1.657088 13.366757 2.091172 11.184471 2.525255 9.002184 3.596714 6.997627 5.170054 5.424286 6.743395 3.850945 8.747954 2.779488 10.930241 2.345404 13.112527 1.91132 15.374525 2.134108 17.430195 2.985592 19.485863 3.837078 21.242873 5.279018 22.479039 7.12907 23.715205 8.979124 24.375006 11.154196 24.375006 13.379235 24.371533 16.361855 23.185153 19.22132 21.07612 21.33035 18.967089 23.439383 16.107626 24.625763 13.125007 24.629237Z" fill="#363636"/>
</svg>

