<svg width="31" height="30" viewBox="0 0 31 30" fill="none" xmlns="http://www.w3.org/2000/svg">
<path d="M28.4397 14.7949L16.3723 2.73633C16.2854 2.64928 16.1822 2.58021 16.0686 2.53308C15.955 2.48596 15.8332 2.4617 15.7102 2.4617C15.5872 2.4617 15.4654 2.48596 15.3518 2.53308C15.2382 2.58021 15.135 2.64928 15.0481 2.73633L2.98071 14.7949C2.62915 15.1465 2.42993 15.624 2.42993 16.1221C2.42993 17.1563 3.27075 17.9971 4.30493 17.9971H5.57642V26.6016C5.57642 27.1201 5.99536 27.5391 6.51392 27.5391H13.8352V20.9766H17.1165V27.5391H24.9065C25.425 27.5391 25.844 27.1201 25.844 26.6016V17.9971H27.1155C27.6135 17.9971 28.0911 17.8008 28.4426 17.4463C29.1721 16.7139 29.1721 15.5274 28.4397 14.7949Z" fill="#05101C"/>
</svg>
