<svg width="24" height="25" viewBox="0 0 24 25" fill="none" xmlns="http://www.w3.org/2000/svg">
<g opacity="0.6">
<path d="M19.1486 4.15625C16.6 2.28125 13.4528 3.15625 11.7538 5.30208C10.0547 3.15625 6.90753 2.27083 4.35892 4.15625C3.00738 5.15625 2.15785 6.84375 2.09992 8.625C1.96477 12.6667 5.28569 15.9063 10.3539 20.875L10.4505 20.9688C11.1842 21.6875 12.3137 21.6875 13.0474 20.9583L13.1536 20.8542C18.2218 15.8958 21.5331 12.6563 21.4076 8.61458C21.3497 6.84375 20.5001 5.15625 19.1486 4.15625ZM11.8503 19.3229L11.7538 19.4271L11.6572 19.3229C7.06199 14.8333 4.03069 11.8646 4.03069 8.85417C4.03069 6.77083 5.47876 5.20833 7.40953 5.20833C8.89622 5.20833 10.3443 6.23958 10.8559 7.66667H12.6612C13.1632 6.23958 14.6113 5.20833 16.098 5.20833C18.0287 5.20833 19.4768 6.77083 19.4768 8.85417C19.4768 11.8646 16.4455 14.8333 11.8503 19.3229Z" fill="#363636"/>
</g>
</svg>
