<svg width="25" height="25" viewBox="0 0 25 25" fill="none" xmlns="http://www.w3.org/2000/svg">
<path d="M22.4273 15.0727L20.3125 12.9578V10.1562C20.3101 8.22019 19.5899 6.35379 18.2911 4.91795C16.9924 3.48212 15.2074 2.57885 13.2812 2.38281V0.78125H11.7188V2.38281C9.79264 2.57885 8.00763 3.48212 6.70888 4.91795C5.41014 6.35379 4.68992 8.22019 4.6875 10.1562V12.9578L2.57266 15.0727C2.42613 15.2191 2.34379 15.4178 2.34375 15.625V17.9688C2.34375 18.176 2.42606 18.3747 2.57257 18.5212C2.71909 18.6677 2.9178 18.75 3.125 18.75H8.59375V19.5312C8.59375 20.5673 9.0053 21.5608 9.73786 22.2934C10.4704 23.0259 11.464 23.4375 12.5 23.4375C13.536 23.4375 14.5296 23.0259 15.2621 22.2934C15.9947 21.5608 16.4062 20.5673 16.4062 19.5312V18.75H21.875C22.0822 18.75 22.2809 18.6677 22.4274 18.5212C22.5739 18.3747 22.6562 18.176 22.6562 17.9688V15.625C22.6562 15.4178 22.5739 15.2191 22.4273 15.0727ZM14.8438 19.5312C14.8438 20.1529 14.5968 20.749 14.1573 21.1885C13.7177 21.6281 13.1216 21.875 12.5 21.875C11.8784 21.875 11.2823 21.6281 10.8427 21.1885C10.4032 20.749 10.1562 20.1529 10.1562 19.5312V18.75H14.8438V19.5312Z" fill="white"/>
</svg>