<svg width="31" height="30" viewBox="0 0 31 30" fill="none" xmlns="http://www.w3.org/2000/svg">
<path d="M15.0537 7.5C14.1266 7.5 13.2203 7.77492 12.4495 8.28999C11.6786 8.80506 11.0778 9.53714 10.723 10.3937C10.3682 11.2502 10.2754 12.1927 10.4563 13.102C10.6372 14.0113 11.0836 14.8465 11.7392 15.5021C12.3947 16.1576 13.2299 16.6041 14.1392 16.7849C15.0485 16.9658 15.991 16.873 16.8475 16.5182C17.7041 16.1634 18.4362 15.5626 18.9512 14.7917C19.4663 14.0209 19.7412 13.1146 19.7412 12.1875C19.7412 10.9443 19.2474 9.75201 18.3683 8.87294C17.4892 7.99386 16.2969 7.5 15.0537 7.5ZM15.0537 15C14.4975 15 13.9537 14.835 13.4912 14.526C13.0287 14.217 12.6682 13.7777 12.4553 13.2638C12.2424 12.7499 12.1867 12.1844 12.2953 11.6388C12.4038 11.0932 12.6716 10.5921 13.065 10.1988C13.4583 9.80543 13.9595 9.53756 14.505 9.42904C15.0506 9.32052 15.6161 9.37622 16.13 9.58909C16.6439 9.80196 17.0832 10.1624 17.3922 10.625C17.7013 11.0875 17.8662 11.6312 17.8662 12.1875C17.8655 12.9332 17.5689 13.6481 17.0416 14.1754C16.5143 14.7027 15.7994 14.9993 15.0537 15Z" fill="#05101C"/>
<path d="M15.0537 1.875C12.4578 1.875 9.92025 2.64477 7.76186 4.08696C5.60346 5.52916 3.9212 7.579 2.9278 9.97728C1.9344 12.3756 1.67448 15.0146 2.18091 17.5606C2.68734 20.1066 3.93738 22.4452 5.77294 24.2808C7.6085 26.1163 9.94716 27.3664 12.4932 27.8728C15.0392 28.3792 17.6782 28.1193 20.0764 27.1259C22.4747 26.1325 24.5246 24.4503 25.9668 22.2919C27.4089 20.1335 28.1787 17.5959 28.1787 15C28.1747 11.5203 26.7907 8.18416 24.3301 5.72361C21.8696 3.26305 18.5335 1.87897 15.0537 1.875ZM9.42872 24.7284V23.4375C9.42946 22.6918 9.72602 21.9769 10.2533 21.4496C10.7806 20.9223 11.4955 20.6257 12.2412 20.625H17.8662C18.6119 20.6257 19.3268 20.9223 19.8541 21.4496C20.3814 21.9769 20.678 22.6918 20.6787 23.4375V24.7284C18.9717 25.7252 17.0305 26.2505 15.0537 26.2505C13.077 26.2505 11.1357 25.7252 9.42872 24.7284ZM22.5462 23.3681C22.5275 22.1384 22.0265 20.9653 21.1511 20.1015C20.2757 19.2377 19.096 18.7523 17.8662 18.75H12.2412C11.0114 18.7523 9.83169 19.2377 8.9563 20.1015C8.08091 20.9653 7.5799 22.1384 7.56122 23.3681C5.86112 21.8501 4.66221 19.8514 4.12325 17.6369C3.58428 15.4223 3.73068 13.0963 4.54307 10.9667C5.35545 8.83723 6.79549 7.00469 8.6725 5.71178C10.5495 4.41887 12.775 3.72659 15.0542 3.72659C17.3334 3.72659 19.5589 4.41887 21.4359 5.71178C23.3129 7.00469 24.7529 8.83723 25.5653 10.9667C26.3777 13.0963 26.5241 15.4223 25.9851 17.6369C25.4462 19.8514 24.2472 21.8501 22.5472 23.3681H22.5462Z" fill="#05101C"/>
</svg>
