<svg width="15" height="15" viewBox="0 0 15 15" fill="none" xmlns="http://www.w3.org/2000/svg">
<g clip-path="url(#clip0_1_2844)">
<path d="M8.81215 2.78856C8.58528 2.56117 8.27757 2.43339 7.95669 2.43332H3.6177C3.29679 2.43332 2.98903 2.56106 2.76211 2.78843C2.53519 3.01581 2.40771 3.3242 2.40771 3.64575V7.99355C2.40778 8.31508 2.53531 8.62342 2.76224 8.85074L7.60216 13.7005C7.82907 13.9278 8.13678 14.0555 8.45762 14.0555C8.77847 14.0555 9.08617 13.9278 9.31308 13.7005L13.6521 9.35269C13.8789 9.12532 14.0063 8.81699 14.0063 8.49549C14.0063 8.174 13.8789 7.86567 13.6521 7.6383L8.81215 2.78856ZM5.43267 6.67684C5.11168 6.67676 4.80387 6.54891 4.57696 6.32142C4.35004 6.09394 4.22261 5.78544 4.22269 5.4638C4.22277 5.14216 4.35036 4.83373 4.57738 4.60635C4.80441 4.37898 5.11229 4.25129 5.43327 4.25137C5.75426 4.25145 6.06207 4.37929 6.28898 4.60678C6.5159 4.83427 6.64333 5.14277 6.64325 5.46441C6.64317 5.78605 6.51559 6.09448 6.28856 6.32185C6.06153 6.54923 5.75366 6.67692 5.43267 6.67684Z" fill="#7662B3"/>
</g>
<defs>
<clipPath id="clip0_1_2844">
<rect width="13.7734" height="13.8013" fill="white" transform="translate(0.958008 0.98056)"/>
</clipPath>
</defs>
</svg>
