<svg width="24" height="25" viewBox="0 0 24 25" fill="none" xmlns="http://www.w3.org/2000/svg">
<g opacity="0.6">
<path d="M17.9043 3H7.36838C5.67386 3 4.29541 4.4915 4.29541 6.325V22L10.4413 18.675L16.5873 22V13.45H20.9772V6.325C20.9772 4.4915 19.5988 3 17.9043 3ZM14.8313 18.9258L10.4413 16.5508L6.05139 18.9258V6.325C6.05139 5.53935 6.64228 4.9 7.36838 4.9H15.1403C14.9394 5.34373 14.8337 5.83087 14.8313 6.325V18.9258ZM19.2212 11.55H16.5873V6.325C16.5873 5.53935 17.1782 4.9 17.9043 4.9C18.6304 4.9 19.2212 5.53935 19.2212 6.325V11.55Z" fill="#363636"/>
</g>
</svg>
