<svg width="144" height="23" viewBox="0 0 144 23" fill="none" xmlns="http://www.w3.org/2000/svg">
<path d="M0.556966 21.4644V18.7271C0.556966 18.5714 0.600649 18.4935 0.688017 18.4935C0.797226 18.4935 0.97196 18.538 1.21222 18.627C1.64906 18.7605 2.16234 18.894 2.75207 19.0276C3.3418 19.1388 3.9206 19.2279 4.48849 19.2946C5.05638 19.3614 5.51505 19.3948 5.86452 19.3948C7.0003 19.3948 7.86305 19.0721 8.45278 18.4267C9.06435 17.7813 9.37013 17.0358 9.37013 16.1901C9.37013 15.3222 9.06435 14.6212 8.45278 14.0871C7.86305 13.553 7.06582 13.1413 6.0611 12.852C5.51505 12.7184 4.89256 12.5293 4.19363 12.2845C3.51653 12.0397 2.85035 11.6947 2.1951 11.2496C1.56169 10.8045 1.03749 10.1925 0.622491 9.41364C0.207497 8.61248 0 7.5999 0 6.37591C0 4.8626 0.338548 3.64973 1.01564 2.7373C1.71458 1.82487 2.6101 1.15723 3.70219 0.734396C4.81612 0.289307 5.99557 0.0667626 7.24056 0.0667626C7.72108 0.0667626 8.24528 0.122399 8.81317 0.233671C9.40289 0.322689 9.9817 0.445088 10.5496 0.600869C11.1175 0.756651 11.6198 0.934687 12.0567 1.13498C12.2314 1.17949 12.3406 1.24625 12.3843 1.33527C12.428 1.40203 12.4498 1.50218 12.4498 1.6357V4.13933C12.4498 4.7402 12.0894 4.84035 11.3687 4.43977C10.91 4.17271 10.353 3.93904 9.69776 3.73875C9.06435 3.51621 8.35449 3.40493 7.56818 3.40493C6.60714 3.40493 5.83176 3.66086 5.24203 4.17271C4.6523 4.68457 4.35744 5.29657 4.35744 6.00871C4.35744 6.6986 4.54309 7.25496 4.91441 7.67779C5.28572 8.10063 5.76624 8.43445 6.35596 8.67924C6.94569 8.92404 7.55726 9.12433 8.19068 9.28012C8.82409 9.4359 9.40289 9.61393 9.9271 9.81422C10.8008 10.1035 11.5215 10.493 12.0894 10.9826C12.6792 11.4499 13.1269 12.0731 13.4327 12.852C13.7385 13.6309 13.8914 14.6212 13.8914 15.8229C13.8914 17.4475 13.5419 18.7939 12.843 19.8621C12.1659 20.9081 11.2267 21.687 10.0254 22.1988C8.82409 22.7107 7.45897 22.9666 5.93005 22.9666C5.25295 22.9666 4.48849 22.8999 3.63666 22.7663C2.78483 22.6328 2.00945 22.4436 1.31051 22.1988C1.02656 22.1098 0.829988 22.0208 0.720779 21.9318C0.61157 21.8205 0.556966 21.6647 0.556966 21.4644Z" fill="white"/>
<path d="M19.5373 11.5501C19.5373 9.12433 19.7885 7.05467 20.2909 5.34107C20.8151 3.62748 21.7324 2.32559 23.0429 1.43541C24.3753 0.522979 26.2318 0.0667626 28.6126 0.0667626C30.4473 0.0667626 31.9653 0.322689 33.1666 0.834542C34.3679 1.3464 35.2962 2.09192 35.9514 3.07112C36.6285 4.05031 37.0872 5.25206 37.3275 6.67634C37.5896 8.10063 37.7206 9.72521 37.7206 11.5501C37.7206 13.3749 37.5896 14.9995 37.3275 16.4238C37.0872 17.8258 36.6285 19.0164 35.9514 19.9956C35.2962 20.9748 34.3679 21.7204 33.1666 22.2322C31.9653 22.7441 30.4473 23 28.6126 23C26.2318 23 24.3753 22.5549 23.0429 21.6647C21.7324 20.7523 20.8151 19.4504 20.2909 17.7591C19.7885 16.0455 19.5373 13.9758 19.5373 11.5501ZM24.0258 11.5501C24.0258 13.6197 24.1896 15.2221 24.5172 16.357C24.8449 17.4698 25.3363 18.2487 25.9916 18.6938C26.6468 19.1388 27.5096 19.3614 28.5798 19.3614C29.6282 19.3614 30.491 19.15 31.1681 18.7271C31.8452 18.2821 32.3585 17.492 32.7079 16.357C33.0792 15.2221 33.2649 13.6197 33.2649 11.5501C33.2649 9.45815 33.0792 7.8447 32.7079 6.70972C32.3585 5.55249 31.8452 4.75133 31.1681 4.30624C30.491 3.86115 29.6173 3.63861 28.5471 3.63861C27.4987 3.63861 26.6359 3.87228 25.9588 4.33962C25.3036 4.78471 24.8121 5.57475 24.4845 6.70972C24.1787 7.8447 24.0258 9.45815 24.0258 11.5501Z" fill="white"/>
<path d="M56.713 21.5312C56.713 22.0653 56.4072 22.4103 55.7956 22.566C55.4899 22.6773 55.1076 22.7552 54.649 22.7997C54.2121 22.8665 53.7862 22.911 53.3712 22.9332C52.9781 22.9555 52.6723 22.9666 52.4538 22.9666C49.811 22.9666 47.6923 21.9985 46.0979 20.0624C44.5034 18.1263 43.7062 15.2777 43.7062 11.5167C43.7062 7.73343 44.4707 4.87373 45.9996 2.93759C47.5504 0.979197 49.7018 0 52.4538 0C52.6723 0 52.9781 0.0222542 53.3712 0.0667626C53.7862 0.0890168 54.2121 0.133526 54.649 0.20029C55.1076 0.244798 55.4899 0.322688 55.7956 0.433961C56.1014 0.500725 56.3308 0.589743 56.4837 0.701015C56.6366 0.812287 56.713 0.968068 56.713 1.16836V4.07257C56.713 4.67344 56.3963 4.75133 55.7629 4.30624C55.326 4.01693 54.8455 3.80551 54.3213 3.67199C53.7971 3.51621 53.2838 3.43832 52.7815 3.43832C51.886 3.43832 51.1324 3.63861 50.5209 4.03919C49.9311 4.41751 49.4615 4.96275 49.1121 5.67489C48.7626 6.36478 48.5114 7.16594 48.3585 8.07837C48.2056 8.99081 48.1292 9.99226 48.1292 11.0827C48.1292 11.8171 48.1619 12.5738 48.2275 13.3527C48.3148 14.1316 48.4459 14.8994 48.6206 15.656C48.8172 16.3904 49.0793 17.0581 49.4069 17.6589C49.7564 18.2598 50.2041 18.7383 50.7502 19.0943C51.3181 19.4282 51.9952 19.5951 52.7815 19.5951C53.3494 19.5951 53.8954 19.5283 54.4196 19.3948C54.9438 19.239 55.3588 19.0721 55.6646 18.894C56.0796 18.627 56.3526 18.5046 56.4837 18.5269C56.6366 18.5491 56.713 18.7271 56.713 19.061V21.5312Z" fill="white"/>
<path d="M67.483 22.299C67.483 22.566 67.3301 22.6996 67.0243 22.6996H63.617C63.3112 22.6996 63.1583 22.566 63.1583 22.299V0.667634C63.1583 0.378325 63.3112 0.233671 63.617 0.233671H67.0243C67.3301 0.233671 67.483 0.378325 67.483 0.667634V22.299Z" fill="white"/>
<path d="M73.8952 22.6996C73.7205 22.6996 73.6113 22.6217 73.5676 22.4659C73.5239 22.3101 73.5349 22.0097 73.6004 21.5646C73.7533 20.5631 73.9826 19.3614 74.2884 17.9594C74.5942 16.5351 74.9546 15.0329 75.3696 13.4528C75.7846 11.8728 76.2214 10.2927 76.6801 8.71263C77.1606 7.13256 77.652 5.66376 78.1544 4.30624C78.6568 2.92646 79.1373 1.78036 79.596 0.867923C79.727 0.667633 79.8362 0.511852 79.9236 0.400579C80.0328 0.289307 80.1638 0.233671 80.3167 0.233671H83.4292C83.6039 0.300435 83.7459 0.378326 83.8551 0.467344C83.9643 0.534106 84.0735 0.667633 84.1827 0.867923C84.6414 1.78036 85.1219 2.92646 85.6243 4.30624C86.1266 5.66376 86.6181 7.13256 87.0986 8.71263C87.5791 10.2927 88.0269 11.8839 88.4419 13.4862C88.8569 15.0663 89.2173 16.5685 89.5231 17.9927C89.8288 19.3948 90.0473 20.5854 90.1783 21.5646C90.2657 22.0097 90.2875 22.3101 90.2438 22.4659C90.2001 22.6217 90.08 22.6996 89.8834 22.6996H86.5089C86.3342 22.6996 86.214 22.6551 86.1485 22.566C86.083 22.4548 86.0065 22.1877 85.9192 21.7649C85.8318 21.253 85.7117 20.6522 85.5588 19.9623C85.4277 19.2501 85.3076 18.627 85.1984 18.0929C85.1765 17.9371 85.1438 17.8481 85.1001 17.8258C85.0564 17.7813 84.9581 17.7591 84.8052 17.7591H78.9735C78.8206 17.7813 78.7332 17.8036 78.7114 17.8258C78.6895 17.8481 78.6568 17.9482 78.6131 18.1263C78.5039 18.6381 78.3728 19.2501 78.2199 19.9623C78.0889 20.6522 77.9687 21.2642 77.8595 21.7983C77.794 22.1988 77.7285 22.4548 77.663 22.566C77.5974 22.6551 77.4773 22.6996 77.3026 22.6996H73.8952ZM79.8908 14.3875H83.8879C84.0408 14.3875 84.1281 14.3653 84.15 14.3208C84.1936 14.254 84.1936 14.1427 84.15 13.9869C83.866 12.852 83.5602 11.6725 83.2326 10.4485C82.905 9.20222 82.5664 8.07837 82.217 7.07692C82.1733 6.87663 82.0968 6.77649 81.9876 6.77649H81.7583C81.6709 6.77649 81.5945 6.87663 81.529 7.07692C81.3542 7.65554 81.1467 8.3343 80.9065 9.11321C80.688 9.89211 80.4696 10.7044 80.2512 11.5501C80.0328 12.3957 79.8253 13.2192 79.6287 14.0203C79.6069 14.1538 79.6069 14.254 79.6287 14.3208C79.6506 14.3653 79.7379 14.3875 79.8908 14.3875Z" fill="white"/>
<path d="M96.7572 22.6996C96.4514 22.6996 96.2985 22.566 96.2985 22.299V0.667634C96.2985 0.378325 96.4514 0.233671 96.7572 0.233671H100.066C100.285 0.233671 100.427 0.27818 100.492 0.367198C100.58 0.433962 100.623 0.578616 100.623 0.801161V18.9942C100.623 19.1277 100.634 19.2167 100.656 19.2612C100.678 19.2835 100.754 19.2946 100.885 19.2946H107.569C107.875 19.2946 108.049 19.328 108.093 19.3948C108.159 19.4615 108.191 19.6396 108.191 19.9289V22.0653C108.191 22.3769 108.159 22.566 108.093 22.6328C108.028 22.6773 107.853 22.6996 107.569 22.6996H96.7572Z" fill="white"/>
<path d="M114.399 22.6996C114.093 22.6996 113.94 22.566 113.94 22.299V0.667634C113.94 0.378325 114.093 0.233671 114.399 0.233671H117.708C117.927 0.233671 118.069 0.27818 118.134 0.367198C118.221 0.433962 118.265 0.578616 118.265 0.801161V18.9942C118.265 19.1277 118.276 19.2167 118.298 19.2612C118.32 19.2835 118.396 19.2946 118.527 19.2946H125.211C125.517 19.2946 125.691 19.328 125.735 19.3948C125.801 19.4615 125.833 19.6396 125.833 19.9289V22.0653C125.833 22.3769 125.801 22.566 125.735 22.6328C125.67 22.6773 125.495 22.6996 125.211 22.6996H114.399Z" fill="white"/>
<path d="M138.037 13.2859C137.906 13.464 137.808 13.7199 137.742 14.0537C137.699 14.3653 137.677 14.6434 137.677 14.8882V22.299C137.677 22.4103 137.633 22.5104 137.546 22.5994C137.458 22.6662 137.36 22.6996 137.251 22.6996H133.745C133.461 22.6996 133.319 22.566 133.319 22.299V14.9216C133.319 14.3653 133.177 13.8089 132.893 13.2525C132.61 12.6739 132.369 12.2288 132.173 11.9173C132.063 11.7392 131.878 11.4499 131.616 11.0493C131.375 10.6265 131.102 10.1703 130.797 9.6807C130.513 9.16884 130.24 8.7015 129.978 8.27866C129.737 7.85583 129.584 7.56652 129.519 7.41074C128.929 6.25351 128.449 5.2298 128.077 4.33962C127.728 3.42719 127.466 2.68166 127.291 2.10305C127.138 1.52443 127.04 1.16836 126.996 1.03483C126.931 0.723269 126.963 0.511852 127.094 0.400579C127.247 0.289307 127.433 0.233671 127.651 0.233671H130.993C131.277 0.233671 131.463 0.378325 131.55 0.667634C131.747 1.31301 131.954 1.93614 132.173 2.53701C132.391 3.11563 132.609 3.67199 132.828 4.2061C133.068 4.7402 133.287 5.20755 133.483 5.60813C133.789 6.209 134.073 6.75423 134.335 7.24383C134.597 7.71117 134.859 8.15626 135.121 8.5791C135.274 8.80164 135.394 8.92404 135.482 8.9463C135.569 8.96855 135.689 8.84615 135.842 8.5791C135.951 8.40106 136.071 8.2119 136.202 8.01161C136.334 7.81132 136.475 7.57765 136.628 7.31059C136.781 7.04354 136.934 6.75423 137.087 6.44267C137.327 5.99758 137.589 5.45235 137.873 4.80697C138.179 4.13933 138.474 3.43832 138.758 2.70392C139.042 1.96952 139.249 1.27963 139.38 0.634252C139.424 0.456216 139.49 0.344944 139.577 0.300436C139.664 0.255926 139.795 0.233671 139.97 0.233671H143.476C143.629 0.233671 143.76 0.289307 143.869 0.400579C144 0.511852 144.033 0.723269 143.967 1.03483C143.945 1.16836 143.858 1.54669 143.705 2.16981C143.552 2.77068 143.301 3.53846 142.952 4.47315C142.602 5.40784 142.122 6.4538 141.51 7.61103C141.379 7.90034 141.171 8.28979 140.888 8.77939C140.604 9.26899 140.287 9.8031 139.937 10.3817C139.588 10.9381 139.249 11.4833 138.922 12.0174C138.594 12.5293 138.299 12.9521 138.037 13.2859Z" fill="white"/>
</svg>
